<mxfile host="app.diagrams.net" agent="Mozilla/5.0 (Windows NT 10.0; Win64; x64) AppleWebKit/537.36 (KHTML, like Gecko) Chrome/141.0.0.0 Safari/537.36" version="28.2.6">
  <diagram name="페이지-1" id="e-BFJlDE4Yh8At8BM7uv">
    <mxGraphModel dx="971" dy="709" grid="1" gridSize="10" guides="1" tooltips="1" connect="1" arrows="1" fold="1" page="1" pageScale="1" pageWidth="827" pageHeight="1169" math="0" shadow="0">
      <root>
        <mxCell id="0" />
        <mxCell id="1" parent="0" />
        <mxCell id="YEBo-6KzvP_jivz8MXjP-2" value="회원" style="rounded=0;whiteSpace=wrap;html=1;" vertex="1" parent="1">
          <mxGeometry x="300" y="70" width="120" height="60" as="geometry" />
        </mxCell>
        <mxCell id="YEBo-6KzvP_jivz8MXjP-3" value="수강" style="rounded=0;whiteSpace=wrap;html=1;" vertex="1" parent="1">
          <mxGeometry x="300" y="190" width="120" height="60" as="geometry" />
        </mxCell>
        <mxCell id="YEBo-6KzvP_jivz8MXjP-4" value="강사" style="rounded=0;whiteSpace=wrap;html=1;" vertex="1" parent="1">
          <mxGeometry x="120" y="190" width="120" height="60" as="geometry" />
        </mxCell>
        <mxCell id="YEBo-6KzvP_jivz8MXjP-5" value="" style="endArrow=none;html=1;rounded=0;" edge="1" parent="1" source="YEBo-6KzvP_jivz8MXjP-4" target="YEBo-6KzvP_jivz8MXjP-2">
          <mxGeometry relative="1" as="geometry">
            <mxPoint x="330" y="370" as="sourcePoint" />
            <mxPoint x="490" y="370" as="targetPoint" />
            <Array as="points">
              <mxPoint x="180" y="100" />
            </Array>
          </mxGeometry>
        </mxCell>
        <mxCell id="YEBo-6KzvP_jivz8MXjP-6" value="0..1" style="resizable=0;html=1;whiteSpace=wrap;align=left;verticalAlign=bottom;" connectable="0" vertex="1" parent="YEBo-6KzvP_jivz8MXjP-5">
          <mxGeometry x="-1" relative="1" as="geometry" />
        </mxCell>
        <mxCell id="YEBo-6KzvP_jivz8MXjP-7" value="1" style="resizable=0;html=1;whiteSpace=wrap;align=right;verticalAlign=bottom;" connectable="0" vertex="1" parent="YEBo-6KzvP_jivz8MXjP-5">
          <mxGeometry x="1" relative="1" as="geometry" />
        </mxCell>
        <mxCell id="YEBo-6KzvP_jivz8MXjP-8" value="진도" style="rounded=0;whiteSpace=wrap;html=1;" vertex="1" parent="1">
          <mxGeometry x="480" y="190" width="120" height="60" as="geometry" />
        </mxCell>
        <mxCell id="YEBo-6KzvP_jivz8MXjP-9" value="강의" style="rounded=0;whiteSpace=wrap;html=1;" vertex="1" parent="1">
          <mxGeometry x="300" y="310" width="120" height="60" as="geometry" />
        </mxCell>
        <mxCell id="YEBo-6KzvP_jivz8MXjP-10" value="수업" style="rounded=0;whiteSpace=wrap;html=1;" vertex="1" parent="1">
          <mxGeometry x="480" y="310" width="120" height="60" as="geometry" />
        </mxCell>
        <mxCell id="YEBo-6KzvP_jivz8MXjP-11" value="섹션" style="rounded=0;whiteSpace=wrap;html=1;" vertex="1" parent="1">
          <mxGeometry x="480" y="430" width="120" height="60" as="geometry" />
        </mxCell>
        <mxCell id="YEBo-6KzvP_jivz8MXjP-12" value="" style="endArrow=none;html=1;rounded=0;" edge="1" parent="1" source="YEBo-6KzvP_jivz8MXjP-4" target="YEBo-6KzvP_jivz8MXjP-9">
          <mxGeometry relative="1" as="geometry">
            <mxPoint x="330" y="370" as="sourcePoint" />
            <mxPoint x="490" y="370" as="targetPoint" />
            <Array as="points">
              <mxPoint x="180" y="340" />
            </Array>
          </mxGeometry>
        </mxCell>
        <mxCell id="YEBo-6KzvP_jivz8MXjP-13" value="1" style="resizable=0;html=1;whiteSpace=wrap;align=left;verticalAlign=bottom;" connectable="0" vertex="1" parent="YEBo-6KzvP_jivz8MXjP-12">
          <mxGeometry x="-1" relative="1" as="geometry">
            <mxPoint y="20" as="offset" />
          </mxGeometry>
        </mxCell>
        <mxCell id="YEBo-6KzvP_jivz8MXjP-14" value="0..*" style="resizable=0;html=1;whiteSpace=wrap;align=right;verticalAlign=bottom;" connectable="0" vertex="1" parent="YEBo-6KzvP_jivz8MXjP-12">
          <mxGeometry x="1" relative="1" as="geometry" />
        </mxCell>
        <mxCell id="YEBo-6KzvP_jivz8MXjP-15" value="" style="endArrow=none;html=1;rounded=0;" edge="1" parent="1" source="YEBo-6KzvP_jivz8MXjP-3" target="YEBo-6KzvP_jivz8MXjP-8">
          <mxGeometry relative="1" as="geometry">
            <mxPoint x="330" y="370" as="sourcePoint" />
            <mxPoint x="490" y="370" as="targetPoint" />
          </mxGeometry>
        </mxCell>
        <mxCell id="YEBo-6KzvP_jivz8MXjP-16" value="1" style="resizable=0;html=1;whiteSpace=wrap;align=left;verticalAlign=bottom;" connectable="0" vertex="1" parent="YEBo-6KzvP_jivz8MXjP-15">
          <mxGeometry x="-1" relative="1" as="geometry" />
        </mxCell>
        <mxCell id="YEBo-6KzvP_jivz8MXjP-17" value="1" style="resizable=0;html=1;whiteSpace=wrap;align=right;verticalAlign=bottom;" connectable="0" vertex="1" parent="YEBo-6KzvP_jivz8MXjP-15">
          <mxGeometry x="1" relative="1" as="geometry" />
        </mxCell>
        <mxCell id="YEBo-6KzvP_jivz8MXjP-22" value="" style="endArrow=none;html=1;rounded=0;" edge="1" parent="1" source="YEBo-6KzvP_jivz8MXjP-9" target="YEBo-6KzvP_jivz8MXjP-10">
          <mxGeometry relative="1" as="geometry">
            <mxPoint x="330" y="370" as="sourcePoint" />
            <mxPoint x="490" y="370" as="targetPoint" />
          </mxGeometry>
        </mxCell>
        <mxCell id="YEBo-6KzvP_jivz8MXjP-23" value="1" style="resizable=0;html=1;whiteSpace=wrap;align=left;verticalAlign=bottom;" connectable="0" vertex="1" parent="YEBo-6KzvP_jivz8MXjP-22">
          <mxGeometry x="-1" relative="1" as="geometry" />
        </mxCell>
        <mxCell id="YEBo-6KzvP_jivz8MXjP-24" value="0..*" style="resizable=0;html=1;whiteSpace=wrap;align=right;verticalAlign=bottom;" connectable="0" vertex="1" parent="YEBo-6KzvP_jivz8MXjP-22">
          <mxGeometry x="1" relative="1" as="geometry" />
        </mxCell>
        <mxCell id="YEBo-6KzvP_jivz8MXjP-25" value="" style="endArrow=none;html=1;rounded=0;" edge="1" parent="1" source="YEBo-6KzvP_jivz8MXjP-10" target="YEBo-6KzvP_jivz8MXjP-11">
          <mxGeometry relative="1" as="geometry">
            <mxPoint x="330" y="370" as="sourcePoint" />
            <mxPoint x="490" y="370" as="targetPoint" />
          </mxGeometry>
        </mxCell>
        <mxCell id="YEBo-6KzvP_jivz8MXjP-26" value="0..*" style="resizable=0;html=1;whiteSpace=wrap;align=left;verticalAlign=bottom;" connectable="0" vertex="1" parent="YEBo-6KzvP_jivz8MXjP-25">
          <mxGeometry x="-1" relative="1" as="geometry">
            <mxPoint y="20" as="offset" />
          </mxGeometry>
        </mxCell>
        <mxCell id="YEBo-6KzvP_jivz8MXjP-27" value="1" style="resizable=0;html=1;whiteSpace=wrap;align=right;verticalAlign=bottom;" connectable="0" vertex="1" parent="YEBo-6KzvP_jivz8MXjP-25">
          <mxGeometry x="1" relative="1" as="geometry">
            <mxPoint x="10" as="offset" />
          </mxGeometry>
        </mxCell>
        <mxCell id="YEBo-6KzvP_jivz8MXjP-28" value="" style="endArrow=none;html=1;rounded=0;" edge="1" parent="1" source="YEBo-6KzvP_jivz8MXjP-9" target="YEBo-6KzvP_jivz8MXjP-11">
          <mxGeometry relative="1" as="geometry">
            <mxPoint x="330" y="370" as="sourcePoint" />
            <mxPoint x="490" y="370" as="targetPoint" />
            <Array as="points">
              <mxPoint x="360" y="460" />
            </Array>
          </mxGeometry>
        </mxCell>
        <mxCell id="YEBo-6KzvP_jivz8MXjP-29" value="1" style="resizable=0;html=1;whiteSpace=wrap;align=left;verticalAlign=bottom;" connectable="0" vertex="1" parent="YEBo-6KzvP_jivz8MXjP-28">
          <mxGeometry x="-1" relative="1" as="geometry">
            <mxPoint y="20" as="offset" />
          </mxGeometry>
        </mxCell>
        <mxCell id="YEBo-6KzvP_jivz8MXjP-30" value="0..*" style="resizable=0;html=1;whiteSpace=wrap;align=right;verticalAlign=bottom;" connectable="0" vertex="1" parent="YEBo-6KzvP_jivz8MXjP-28">
          <mxGeometry x="1" relative="1" as="geometry" />
        </mxCell>
        <mxCell id="YEBo-6KzvP_jivz8MXjP-31" value="" style="endArrow=none;html=1;rounded=0;startArrow=classic;startFill=1;" edge="1" parent="1" source="YEBo-6KzvP_jivz8MXjP-2" target="YEBo-6KzvP_jivz8MXjP-3">
          <mxGeometry relative="1" as="geometry">
            <mxPoint x="330" y="370" as="sourcePoint" />
            <mxPoint x="490" y="370" as="targetPoint" />
          </mxGeometry>
        </mxCell>
        <mxCell id="YEBo-6KzvP_jivz8MXjP-32" value="1" style="resizable=0;html=1;whiteSpace=wrap;align=left;verticalAlign=bottom;" connectable="0" vertex="1" parent="YEBo-6KzvP_jivz8MXjP-31">
          <mxGeometry x="-1" relative="1" as="geometry">
            <mxPoint x="3" y="20" as="offset" />
          </mxGeometry>
        </mxCell>
        <mxCell id="YEBo-6KzvP_jivz8MXjP-33" value="0..*" style="resizable=0;html=1;whiteSpace=wrap;align=right;verticalAlign=bottom;" connectable="0" vertex="1" parent="YEBo-6KzvP_jivz8MXjP-31">
          <mxGeometry x="1" relative="1" as="geometry">
            <mxPoint x="20" as="offset" />
          </mxGeometry>
        </mxCell>
        <mxCell id="YEBo-6KzvP_jivz8MXjP-34" value="" style="endArrow=classic;html=1;rounded=0;endFill=1;" edge="1" parent="1" source="YEBo-6KzvP_jivz8MXjP-3" target="YEBo-6KzvP_jivz8MXjP-9">
          <mxGeometry relative="1" as="geometry">
            <mxPoint x="330" y="370" as="sourcePoint" />
            <mxPoint x="490" y="370" as="targetPoint" />
          </mxGeometry>
        </mxCell>
        <mxCell id="YEBo-6KzvP_jivz8MXjP-35" value="0..*" style="resizable=0;html=1;whiteSpace=wrap;align=left;verticalAlign=bottom;" connectable="0" vertex="1" parent="YEBo-6KzvP_jivz8MXjP-34">
          <mxGeometry x="-1" relative="1" as="geometry">
            <mxPoint y="20" as="offset" />
          </mxGeometry>
        </mxCell>
        <mxCell id="YEBo-6KzvP_jivz8MXjP-36" value="1" style="resizable=0;html=1;whiteSpace=wrap;align=right;verticalAlign=bottom;" connectable="0" vertex="1" parent="YEBo-6KzvP_jivz8MXjP-34">
          <mxGeometry x="1" relative="1" as="geometry">
            <mxPoint x="14" as="offset" />
          </mxGeometry>
        </mxCell>
      </root>
    </mxGraphModel>
  </diagram>
</mxfile>
